HIERARCHY
ROOT hip
{
  OFFSET 0 0 0
  CHANNELS 6 Xposition Yposition Zposition Zrotation Yrotation Xrotation
  JOINT abdomen
  {
    OFFSET 0 20.6881 -0.73152
    CHANNELS 3 Zrotation Xrotation Yrotation
    JOINT chest
    {
      OFFSET 0 11.7043 -0.48768
      CHANNELS 3 Zrotation Xrotation Yrotation
      JOINT neck
      {
        OFFSET 0 22.1894 -2.19456
        CHANNELS 3 Zrotation Xrotation Yrotation
        JOINT head
        {
          OFFSET -0.24384 7.07133 1.2192
          CHANNELS 3 Zrotation Xrotation Yrotation
          JOINT leftEye
          {
            OFFSET 4.14528 8.04674 8.04672
            CHANNELS 3 Zrotation Xrotation Yrotation
            End Site
            {
              OFFSET 1 0 0
            }
          }
          JOINT rightEye
          {
            OFFSET -3.6576 8.04674 8.04672
            CHANNELS 3 Zrotation Xrotation Yrotation
            End Site
            {
              OFFSET 1 0 0
            }
          }
        }
      }
      JOINT rCollar
      {
        OFFSET -2.68224 19.2634 -4.8768
        CHANNELS 3 Zrotation Xrotation Yrotation
        JOINT rShldr
        {
          OFFSET -8.77824 -1.95073 1.46304
          CHANNELS 3 Zrotation Xrotation Yrotation
          JOINT rForeArm
          {
            OFFSET -28.1742 -1.7115 0.48768
            CHANNELS 3 Zrotation Xrotation Yrotation
            JOINT rHand
            {
              OFFSET -22.5879 0.773209 7.07136
              CHANNELS 3 Zrotation Xrotation Yrotation
              JOINT rThumb1
              {
                OFFSET -1.2192 -0.487915 3.41376
                CHANNELS 3 Zrotation Xrotation Yrotation
                JOINT rThumb2
                {
                  OFFSET -3.37035 -0.52449 3.41376
                  CHANNELS 3 Zrotation Xrotation Yrotation
                  End Site
                  {
                    OFFSET -1.78271 -1.18214 1.43049
                  }
                }
              }
              JOINT rIndex1
              {
                OFFSET -7.75947 0.938293 5.60832
                CHANNELS 3 Zrotation Xrotation Yrotation
                JOINT rIndex2
                {
                  OFFSET -2.54057 -0.884171 1.56538
                  CHANNELS 3 Zrotation Xrotation Yrotation
                  End Site
                  {
                    OFFSET -1.62519 -0.234802 1.16502
                  }
                }
              }
              JOINT rMid1
              {
                OFFSET -8.24714 1.18213 3.41376
                CHANNELS 3 Zrotation Xrotation Yrotation
                JOINT rMid2
                {
                  OFFSET -3.10165 -0.590103 1.0647
                  CHANNELS 3 Zrotation Xrotation Yrotation
                  End Site
                  {
                    OFFSET -2.48547 -0.328903 0.83742
                  }
                }
              }
              JOINT rRing1
              {
                OFFSET -8.82822 0.546677 1.51678
                CHANNELS 3 Zrotation Xrotation Yrotation
                JOINT rRing2
                {
                  OFFSET -2.60934 -0.819778 -0.0198488
                  CHANNELS 3 Zrotation Xrotation Yrotation
                  End Site
                  {
                    OFFSET -2.33842 -0.294052 0.168128
                  }
                }
              }
              JOINT rPinky1
              {
                OFFSET -8.27202 -0.0477905 -0.4584
                CHANNELS 3 Zrotation Xrotation Yrotation
                JOINT rPinky2
                {
                  OFFSET -1.82734 -0.647385 -0.700984
                  CHANNELS 3 Zrotation Xrotation Yrotation
                  End Site
                  {
                    OFFSET -1.69225 -0.51767 -0.607171
                  }
                }
              }
            }
          }
        }
      }
      JOINT lCollar
      {
        OFFSET 2.68224 19.2634 -4.8768
        CHANNELS 3 Zrotation Xrotation Yrotation
        JOINT lShldr
        {
          OFFSET 8.77824 -1.95073 1.46304
          CHANNELS 3 Zrotation Xrotation Yrotation
          JOINT lForeArm
          {
            OFFSET 28.1742 -1.7115 0.48768
            CHANNELS 3 Zrotation Xrotation Yrotation
            JOINT lHand
            {
              OFFSET 22.5879 0.773209 7.07136
              CHANNELS 3 Zrotation Xrotation Yrotation
              JOINT lThumb1
              {
                OFFSET 1.2192 -0.487915 3.41376
                CHANNELS 3 Zrotation Xrotation Yrotation
                JOINT lThumb2
                {
                  OFFSET 3.37035 -0.52449 3.41376
                  CHANNELS 3 Zrotation Xrotation Yrotation
                  End Site
                  {
                    OFFSET 1.78271 -1.18214 1.43049
                  }
                }
              }
              JOINT lIndex1
              {
                OFFSET 7.75947 0.938293 5.60832
                CHANNELS 3 Zrotation Xrotation Yrotation
                JOINT lIndex2
                {
                  OFFSET 2.54057 -0.884171 1.56538
                  CHANNELS 3 Zrotation Xrotation Yrotation
                  End Site
                  {
                    OFFSET 1.62519 -0.234802 1.16502
                  }
                }
              }
              JOINT lMid1
              {
                OFFSET 8.24714 1.18213 3.41376
                CHANNELS 3 Zrotation Xrotation Yrotation
                JOINT lMid2
                {
                  OFFSET 3.10165 -0.590103 1.0647
                  CHANNELS 3 Zrotation Xrotation Yrotation
                  End Site
                  {
                    OFFSET 2.48547 -0.328903 0.83742
                  }
                }
              }
              JOINT lRing1
              {
                OFFSET 8.82822 0.546677 1.51678
                CHANNELS 3 Zrotation Xrotation Yrotation
                JOINT lRing2
                {
                  OFFSET 2.60934 -0.819778 -0.0198488
                  CHANNELS 3 Zrotation Xrotation Yrotation
                  End Site
                  {
                    OFFSET 2.33842 -0.294052 0.168128
                  }
                }
              }
              JOINT lPinky1
              {
                OFFSET 8.27202 -0.0477905 -0.4584
                CHANNELS 3 Zrotation Xrotation Yrotation
                JOINT lPinky2
                {
                  OFFSET 1.82734 -0.647385 -0.700984
                  CHANNELS 3 Zrotation Xrotation Yrotation
                  End Site
                  {
                    OFFSET 1.69225 -0.51767 -0.607171
                  }
                }
              }
            }
          }
        }
      }
    }
  }
  JOINT rButtock
  {
    OFFSET -8.77824 4.35084 1.2192
    CHANNELS 3 Zrotation Xrotation Yrotation
    JOINT rThigh
    {
      OFFSET 0 -1.70687 -2.19456
      CHANNELS 3 Zrotation Xrotation Yrotation
      JOINT rShin
      {
        OFFSET 0 -36.8199 0.73152
        CHANNELS 3 Zrotation Xrotation Yrotation
        JOINT rFoot
        {
          OFFSET 0.73152 -45.1104 -5.12064
          CHANNELS 3 Zrotation Xrotation Yrotation
          End Site
          {
            OFFSET -1.1221 -3.69964 12.103
          }
        }
      }
    }
  }
  JOINT lButtock
  {
    OFFSET 8.77824 4.35084 1.2192
    CHANNELS 3 Zrotation Xrotation Yrotation
    JOINT lThigh
    {
      OFFSET 0 -1.70687 -2.19456
      CHANNELS 3 Zrotation Xrotation Yrotation
      JOINT lShin
      {
        OFFSET 0 -36.8199 0.73152
        CHANNELS 3 Zrotation Xrotation Yrotation
        JOINT lFoot
        {
          OFFSET -0.73152 -45.1104 -5.12064
          CHANNELS 3 Zrotation Xrotation Yrotation
          End Site
          {
            OFFSET 1.1221 -3.69964 12.103
          }
        }
      }
    }
  }
}
MOTION
Frames:	4
Frame Time:	0.00833333
74.74 86.1418 -34.1866 1.7761 -9.4322 2.7506 -5.11396 0.293422 1.75719 2.69677 0.499185 0.520227 -8.631 5.40374 -8.39357 6.40887 -4.97927 -14.5971 -0.0 0.0 0.0 -0.0 0.0 0.0 -5.8921e-14 7.31522e-14 -1.85019e-13 82.4876 45.8228 0.985121 -25.8684 -23.1018 56.2272 -0.145249 -10.8008 -1.53637 2.16779e-10 -1.31749e-09 9.63991e-10 3.63696e-10 -2.24249e-09 1.6715e-09 2.16783e-10 -1.31749e-09 9.63994e-10 7.73091 5.47488 0.417314 2.16781e-10 -1.31749e-09 9.63994e-10 2.90554 0.965183 0.102902 2.16795e-10 -1.31749e-09 9.63998e-10 10.2786 0.731801 0.0259123 2.16775e-10 -1.31748e-09 9.64004e-10 2.22167 -0.733487 -0.20892 -5.9161e-14 7.31522e-14 -1.85466e-13 -72.8944 25.6346 -3.03226 18.1574 -10.857 -34.3743 0.32116 -15.9169 2.29696 1.42347e-09 3.16331e-09 -1.07226e-09 2.47576e-09 5.50381e-09 -1.84325e-09 1.42347e-09 3.1633e-09 -1.07223e-09 -7.73091 5.47488 -0.417314 1.42347e-09 3.1633e-09 -1.07225e-09 -2.90554 0.965183 -0.102902 1.42347e-09 3.1633e-09 -1.07225e-09 -10.2786 0.731801 -0.0259123 1.42348e-09 3.1633e-09 -1.07226e-09 -2.22167 -0.733487 0.20892 -2.03217e-16 0.0 -3.88251e-19 -4.39061 -11.2394 12.1247 -0.0831467 26.1793 0.46764 -1.95583 -9.24936 -6.60282 2.03217e-16 0.0 3.88251e-19 -1.99249 -18.6217 -3.06223 0.118599 23.2166 -0.391125 1.97718 -8.43601 6.68552
74.7518 86.1347 -34.2505 1.9239 -9.5237 2.6049 -4.89571 0.339863 1.79779 2.7072 0.475015 0.532118 -8.55706 5.44846 -8.29691 6.30424 -5.48837 -14.4053 -0.0 0.0 0.0 -0.0 0.0 0.0 -3.96689e-14 7.03754e-14 -2.22317e-13 82.5164 45.6871 0.87091 -25.9687 -23.3545 56.64 -0.13354 -10.3581 -1.472 2.29973e-10 -1.57724e-09 1.02194e-09 3.86893e-10 -2.69233e-09 1.77127e-09 2.29976e-10 -1.57725e-09 1.02194e-09 7.73091 5.47488 0.417314 2.29975e-10 -1.57724e-09 1.02194e-09 2.90554 0.965183 0.102902 2.29987e-10 -1.57725e-09 1.02194e-09 10.2786 0.731801 0.0259123 2.29969e-10 -1.57724e-09 1.02195e-09 2.22167 -0.733487 -0.20892 -3.98589e-14 7.03757e-14 -2.22702e-13 -72.7533 25.8618 -3.39491 18.0986 -10.7925 -34.2432 0.295671 -15.3179 2.20587 1.37066e-09 3.16423e-09 -1.13861e-09 2.38525e-09 5.50733e-09 -1.95878e-09 1.37066e-09 3.16422e-09 -1.13859e-09 -7.73091 5.47488 -0.417314 1.37067e-09 3.16423e-09 -1.1386e-09 -2.90554 0.965183 -0.102902 1.37066e-09 3.16423e-09 -1.1386e-09 -10.2786 0.731801 -0.0259123 1.37067e-09 3.16422e-09 -1.13861e-09 -2.22167 -0.733487 0.20892 -2.03217e-16 0.0 -3.88251e-19 -4.31603 -11.0812 12.3721 -0.0793786 25.9179 0.46438 -1.95234 -9.4292 -6.51848 2.03217e-16 0.0 3.88251e-19 -1.86156 -18.6136 -2.93646 0.118118 23.1323 -0.389767 1.96758 -8.3766 6.67127
74.7094 86.161 -34.3873 1.9102 -9.7105 2.5699 -4.54937 0.369343 1.76154 2.65224 0.467325 0.521912 -8.47393 5.52143 -8.15261 6.26165 -6.03952 -14.1231 -0.0 0.0 0.0 -0.0 0.0 0.0 -8.87676e-15 6.09769e-14 -2.44005e-13 82.4586 45.7195 0.858662 -26.0622 -23.5951 57.0258 -0.122876 -9.94695 -1.41232 2.4665e-10 -1.81391e-09 9.58523e-10 4.17818e-10 -3.10756e-09 1.66056e-09 2.46652e-10 -1.81391e-09 9.5852e-10 7.73091 5.47488 0.417314 2.46653e-10 -1.81391e-09 9.58525e-10 2.90554 0.965183 0.102902 2.46662e-10 -1.81391e-09 9.58525e-10 10.2786 0.731801 0.0259123 2.46646e-10 -1.81391e-09 9.58533e-10 2.22167 -0.733487 -0.20892 -8.96786e-15 6.09772e-14 -2.44275e-13 -72.6156 26.0052 -3.66459 18.0641 -10.7552 -34.1658 0.266363 -14.5789 2.09438 1.11485e-09 2.71916e-09 -1.0232e-09 1.94094e-09 4.73372e-09 -1.76149e-09 1.11484e-09 2.71916e-09 -1.02319e-09 -7.73091 5.47488 -0.417314 1.11485e-09 2.71916e-09 -1.0232e-09 -2.90554 0.965183 -0.102902 1.11484e-09 2.71916e-09 -1.0232e-09 -10.2786 0.731801 -0.0259123 1.11485e-09 2.71916e-09 -1.02321e-09 -2.22167 -0.733487 0.20892 -2.03217e-16 0.0 -3.88251e-19 -4.09256 -10.9606 12.7374 -0.0765258 25.6899 0.461748 -1.94907 -9.66848 -6.40678 2.03217e-16 0.0 3.88251e-19 -1.59517 -18.639 -2.77625 0.117385 23.0379 -0.387523 1.94841 -8.29637 6.62813
74.6174 86.2367 -34.5421 1.6871 -9.8846 2.6646 -4.19221 0.364121 1.69488 2.56802 0.473938 0.503113 -8.37461 5.58931 -7.99586 6.25078 -6.57135 -13.8201 -0.0 0.0 0.0 -0.0 0.0 0.0 1.96362e-14 4.57391e-14 -2.40027e-13 82.3057 45.8427 0.982011 -26.1326 -23.7798 57.3216 -0.114256 -9.60059 -1.36215 2.60244e-10 -1.88015e-09 7.72303e-10 4.44422e-10 -3.23181e-09 1.33736e-09 2.60246e-10 -1.88014e-09 7.72296e-10 7.73091 5.47488 0.417314 2.60247e-10 -1.88015e-09 7.72303e-10 2.90554 0.965183 0.102902 2.60254e-10 -1.88014e-09 7.72302e-10 10.2786 0.731801 0.0259123 2.6024e-10 -1.88014e-09 7.7231e-10 2.22167 -0.733487 -0.20892 1.96441e-14 4.57394e-14 -2.40184e-13 -72.4835 26.1149 -3.88085 18.0526 -10.7431 -34.1392 0.241582 -13.8909 1.99153 7.55226e-10 2.00044e-09 -7.89553e-10 1.31546e-09 3.48305e-09 -1.36033e-09 7.55225e-10 2.00044e-09 -7.89544e-10 -7.73091 5.47488 -0.417314 7.5523e-10 2.00044e-09 -7.89552e-10 -2.90554 0.965183 -0.102902 7.5522e-10 2.00044e-09 -7.89549e-10 -10.2786 0.731801 -0.0259123 7.55229e-10 2.00044e-09 -7.89561e-10 -2.22167 -0.733487 0.20892 -2.03217e-16 0.0 -3.88251e-19 -3.85741 -10.8831 13.0971 -0.0740087 25.4812 0.459284 -1.94229 -9.89239 -6.2893 2.03217e-16 0.0 3.88251e-19 -1.31974 -18.6924 -2.61333 0.1166 22.9378 -0.384993 1.92728 -8.20586 6.58126
